<?xml version="1.0" encoding="UTF-8"?>
<svg version="1.1" xmlns="http://www.w3.org/2000/svg" width="500" height="500">
<path d="M0 0 C165 0 330 0 500 0 C500 165 500 330 500 500 C335 500 170 500 0 500 C0 335 0 170 0 0 Z " fill="#FEFEFE" transform="translate(0,0)"/>
<path d="M0 0 C1.4380598 -0.00322797 2.87611929 -0.00659308 4.31417847 -0.01008606 C7.31102253 -0.01602504 10.30783798 -0.01793148 13.3046875 -0.01733398 C16.3356729 -0.01725289 19.36650662 -0.02417669 22.39746094 -0.0378418 C51.34954806 -0.16615562 51.34954806 -0.16615562 63.01953125 1.015625 C63.75031891 1.08811966 64.48110657 1.16061432 65.23403931 1.23530579 C72.09975661 2.07280811 76.83791724 4.46164711 81.0859375 9.8828125 C86.97607941 19.83294508 86.11383525 33.59507355 86.0546875 44.73046875 C86.05319702 45.42541443 86.05170654 46.12036011 86.0501709 46.83636475 C86.01671243 55.54180868 85.74060836 64.16337344 84.4921875 72.79296875 C84.32843628 73.96194702 84.32843628 73.96194702 84.16137695 75.15454102 C83.13079477 81.18192628 80.7746577 85.24247066 76.3671875 89.41796875 C66.36932836 96.08320818 52.57033284 94.31672825 41.0390625 94.30078125 C39.31186916 94.30145631 37.58467592 94.30242801 35.85748291 94.30368042 C32.24661347 94.30514947 28.63576888 94.30302945 25.02490234 94.29833984 C20.43143088 94.29266025 15.83801809 94.29591539 11.2445488 94.30191231 C7.67886934 94.30555408 4.1132034 94.30436256 0.5475235 94.30178452 C-1.14429481 94.30112432 -2.83611441 94.30191138 -4.52793121 94.30426407 C-35.61374021 94.33799823 -35.61374021 94.33799823 -42.74609375 87.8046875 C-51.31851164 77.61387803 -49.69504666 61.42540416 -49.59399414 49.02832031 C-49.57025599 45.91054657 -49.57347045 42.79362347 -49.58007812 39.67578125 C-49.57450408 37.66796372 -49.56739592 35.66014973 -49.55859375 33.65234375 C-49.55950516 32.73338318 -49.56041656 31.81442261 -49.56135559 30.86761475 C-49.4494736 20.55839603 -47.98384122 13.00390511 -40.5703125 5.41796875 C-30.46549363 -2.42457724 -11.96873881 0.00645127 0 0 Z " fill="#FE0303" transform="translate(72.2578125,179.83203125)"/>
<path d="M0 0 C3.6875 0.4375 3.6875 0.4375 6.3671875 2.4765625 C9.17987324 6.06581468 9.46217448 8.85803707 9.5 13.25 C9.52513672 13.94287109 9.55027344 14.63574219 9.57617188 15.34960938 C9.63463263 17.04497122 9.66403047 18.74129287 9.6875 20.4375 C10.6775 19.1071875 10.6775 19.1071875 11.6875 17.75 C15.40680534 13.26558042 20.18381644 10.27206119 25.6875 8.4375 C28.2854122 8.28872089 30.83893149 8.20646765 33.4375 8.1875 C34.1284375 8.166875 34.819375 8.14625 35.53125 8.125 C42.58976447 8.07192846 47.91954489 10.48215985 53.4375 14.875 C54.17484375 15.45121094 54.9121875 16.02742187 55.671875 16.62109375 C60.04350682 20.56064568 62.44924535 24.63800791 62.953125 30.55859375 C62.94796875 31.65300781 62.9428125 32.74742187 62.9375 33.875 C62.94523437 35.51275391 62.94523437 35.51275391 62.953125 37.18359375 C62.67529963 40.58695456 62.00344419 43.29128132 60.6875 46.4375 C59.6975 46.9325 59.6975 46.9325 58.6875 47.4375 C58.23375 48.200625 57.78 48.96375 57.3125 49.75 C53.87850156 55.4293051 49.97648988 57.59618725 43.828125 59.67578125 C35.85448386 61.60968675 26.92084013 61.69801683 19.6875 57.4375 C15.34178651 54.38233173 12.09267459 51.24784919 9.6875 46.4375 C7.51875748 46.94353992 5.68782373 47.43733813 3.6875 48.4375 C-1.14139743 48.84185212 -5.71940481 49.0815172 -10.25 47.25 C-14.48486736 43.5284499 -17.18418584 40.36221243 -17.5625 34.6875 C-17.51089067 30.63248093 -16.53084567 27.88825993 -14.3125 24.4375 C-11.3125 22.4375 -11.3125 22.4375 -8.3125 22.4375 C-8.6425 21.4475 -8.9725 20.4575 -9.3125 19.4375 C-10.29592609 9.16795219 -10.29592609 9.16795219 -7.4375 4.875 C-3.60227583 0.47577228 -3.60227583 0.47577228 0 0 Z " fill="#F7B31D" transform="translate(69.3125,196.5625)"/>
<path d="M0 0 C3.3 0 6.6 0 10 0 C10 8.25 10 16.5 10 25 C12.97 22.525 12.97 22.525 16 20 C19.10801983 19.17833958 21.85568664 19.36882107 25 20 C27.85475125 21.66527157 29.56379914 22.673473 30.61195374 25.86100769 C31.0180246 28.09935535 31.16181386 30.19969654 31.20874023 32.47387695 C31.23767616 33.79093376 31.23767616 33.79093376 31.26719666 35.13459778 C31.32526431 39.13745581 31.37419017 43.14014327 31.4050293 47.14331055 C31.42662311 49.25089896 31.46074216 51.35839737 31.50756836 53.46557617 C31.57465899 56.51521561 31.60204022 59.5630074 31.62109375 62.61328125 C31.64892441 63.5489241 31.67675507 64.48456696 31.70542908 65.44856262 C31.68721371 71.27519798 30.65368453 74.45550393 26.68739319 78.76676941 C24.6760652 80.23674761 23.41365667 80.54449399 20.9375 80.6875 C16.72191246 79.95144503 14.90852295 79.09030564 12 76 C12 75.34 12 74.68 12 74 C11.34 74 10.68 74 10 74 C10 75.65 10 77.3 10 79 C6.7 79 3.4 79 0 79 C0 52.93 0 26.86 0 0 Z " fill="#2E2E2E" transform="translate(446,187)"/>
<path d="M0 0 C4.63412613 2.27493464 8.83781224 5.65372561 10.59057617 10.70043945 C11.53701131 16.01616551 11.26669084 21.51771272 11.29516602 26.90649414 C11.3066547 28.41830834 11.3270573 29.93008296 11.35668945 31.44165039 C11.68987859 48.46035611 11.68987859 48.46035611 7 55 C2.24393552 58.88250162 -1.76824272 60.39397771 -7.9453125 60.26953125 C-12.70568669 59.64507152 -15.82909594 56.6014445 -18.64453125 52.9375 C-22.33180856 46.86579715 -21.66964409 39.74857813 -21.54199219 32.88232422 C-21.50009414 30.50534103 -21.50093746 28.13119732 -21.5078125 25.75390625 C-21.49731818 24.22133478 -21.48437876 22.68877771 -21.46875 21.15625 C-21.46854858 20.45705444 -21.46834717 19.75785889 -21.46813965 19.03747559 C-21.33590031 13.43354083 -20.36588588 7.63477623 -16.51135254 3.34216309 C-11.72168882 -0.91131826 -6.0998728 -0.99514541 0 0 Z " fill="#313131" transform="translate(228,207)"/>
<path d="M0 0 C4.32019863 1.49694495 7.73564088 3.97447268 10 8 C11.29821091 11.83243275 11.19721407 15.76371671 11.23828125 19.765625 C11.25038887 20.89396759 11.25038887 20.89396759 11.26274109 22.04510498 C11.27654525 23.63535279 11.28728375 25.22562978 11.29516602 26.81591797 C11.30667164 28.43156705 11.32710123 30.04717855 11.35668945 31.66259766 C11.65909659 48.18855638 11.65909659 48.18855638 7 55 C6.34 55.99 5.68 56.98 5 58 C0.2439962 61.1706692 -4.46106045 60.79664531 -10 60 C-15.17705934 57.6888128 -17.85815597 54.16826353 -20 49 C-20.57262063 45.94194712 -20.63170229 42.95364975 -20.63671875 39.84765625 C-20.64766068 38.98869247 -20.6586026 38.1297287 -20.6698761 37.24473572 C-20.68566799 35.43706226 -20.69095879 33.62926959 -20.6862793 31.8215332 C-20.68749565 29.07234244 -20.74735164 26.32845616 -20.81054688 23.58007812 C-20.95523122 8.90139112 -20.95523122 8.90139112 -16.58203125 3.80859375 C-11.48650814 -0.70847928 -6.61934663 -0.66649973 0 0 Z " fill="#303030" transform="translate(426,207)"/>
<path d="M0 0 C4.33768793 2.21558629 6.58129168 5.10787636 8.875 9.30078125 C9.2474066 12.16514071 9.41490906 14.62785858 9.37109375 17.48046875 C9.37254898 18.25206329 9.37400421 19.02365784 9.37550354 19.81863403 C9.37385057 21.44406932 9.36235687 23.06952124 9.34155273 24.69482422 C9.31266347 27.16182161 9.32094269 29.62665687 9.33398438 32.09375 C9.32774356 33.68099988 9.31934994 35.26824305 9.30859375 36.85546875 C9.31152939 37.58281219 9.31446503 38.31015564 9.31748962 39.05953979 C9.20576407 45.23216572 7.93186212 50.77946639 3.9375 55.67578125 C-0.51955033 59.18739666 -4.06420116 59.74917622 -9.65625 59.609375 C-13.40797272 59.14040966 -15.37324801 57.85597953 -18.125 55.30078125 C-21.85587547 49.87292751 -22.71535572 46.02899596 -22.62109375 39.515625 C-22.62254898 38.69630997 -22.62400421 37.87699493 -22.62550354 37.03285217 C-22.62385243 35.31084617 -22.61237999 33.5888242 -22.59155273 31.86694336 C-22.56254148 29.24203436 -22.57097109 26.61914197 -22.58398438 23.99414062 C-22.5777474 22.31379234 -22.56935678 20.63345039 -22.55859375 18.953125 C-22.56152939 18.17484848 -22.56446503 17.39657196 -22.56748962 16.5947113 C-22.45919554 10.29607105 -20.82434136 6.25502381 -16.625 1.42578125 C-11.89000936 -2.22287737 -5.46338792 -1.79769566 0 0 Z " fill="#2F2F2F" transform="translate(388.125,207.69921875)"/>
<path d="M0 0 C3.63 0 7.26 0 11 0 C11.33 8.25 11.66 16.5 12 25 C14.97 22.525 14.97 22.525 18 20 C20.4140625 19.3359375 20.4140625 19.3359375 22.625 19.375 C23.35976563 19.36210937 24.09453125 19.34921875 24.8515625 19.3359375 C28.32639305 20.40997603 29.15177639 21.84426919 31 25 C31.563686 29.10154112 31.4644786 33.16766379 31.390625 37.30078125 C31.38496521 38.49229294 31.37930542 39.68380463 31.37347412 40.91142273 C31.35110685 44.71219269 31.30090685 48.51201557 31.25 52.3125 C31.22993559 54.89126242 31.21168472 57.47003963 31.1953125 60.04882812 C31.15124042 66.36624962 31.08220778 72.6829643 31 79 C27.37 79 23.74 79 20 79 C19.67 62.83 19.34 46.66 19 30 C14.13867505 30.49152482 14.13867505 30.49152482 12 33 C11.67002553 35.05907197 11.67002553 35.05907197 11.68115234 37.44970703 C11.66128265 38.37051056 11.64141296 39.29131409 11.62094116 40.24002075 C11.60361435 41.73382767 11.60361435 41.73382767 11.5859375 43.2578125 C11.56657135 44.27600067 11.5472052 45.29418884 11.5272522 46.3432312 C11.46734645 49.60373489 11.42102701 52.86427367 11.375 56.125 C11.33683035 58.33204687 11.29777923 60.53907869 11.2578125 62.74609375 C11.16163586 68.16394059 11.07764553 73.58185717 11 79 C7.37 79 3.74 79 0 79 C0 52.93 0 26.86 0 0 Z " fill="#313131" transform="translate(326,187)"/>
<path d="M0 0 C3.96 0 7.92 0 12 0 C15.11824861 9.60124771 17.87912873 19.1232627 20 29 C21.14932542 25.10518824 22.29384604 21.20898052 23.4375 17.3125 C23.92573242 15.65831055 23.92573242 15.65831055 24.42382812 13.97070312 C24.73642578 12.90400391 25.04902344 11.83730469 25.37109375 10.73828125 C25.65911865 9.75899658 25.94714355 8.77971191 26.24389648 7.77075195 C26.94300528 5.20885796 27.4791998 2.60400098 28 0 C31.96 0 35.92 0 40 0 C37.71732644 9.64110574 35.14310501 19.17461634 32.375 28.6875 C32.07392334 29.72648437 31.77284668 30.76546875 31.46264648 31.8359375 C31.17333252 32.82207031 30.88401855 33.80820313 30.5859375 34.82421875 C30.3286084 35.70166748 30.0712793 36.57911621 29.80615234 37.4831543 C29 40 29 40 27.92675781 42.31445312 C26.68624413 45.90919772 26.64466595 49.38337573 26.5859375 53.14453125 C26.56657135 53.91431808 26.5472052 54.68410492 26.5272522 55.47721863 C26.46774377 57.92220171 26.42118705 60.36723262 26.375 62.8125 C26.33679369 64.47593134 26.29774043 66.13934347 26.2578125 67.80273438 C26.16206617 71.86833241 26.07792991 75.93402301 26 80 C22.04 80 18.08 80 14 80 C13.99589111 78.98800537 13.99178223 77.97601074 13.98754883 76.93334961 C13.96542972 73.10278477 13.91081542 69.2732003 13.84741211 65.44311523 C13.82451291 63.79965766 13.80990385 62.1560592 13.80444336 60.51245117 C13.75847271 48.9384549 12.12992332 39.81676909 8 29 C7.28836794 26.61122345 6.59765144 24.21601278 5.9375 21.8125 C4.39579301 16.27494019 2.64193322 10.84764867 0.734375 5.42578125 C0 3 0 3 0 0 Z " fill="#313131" transform="translate(164,187)"/>
<path d="M0 0 C3.63 0 7.26 0 11 0 C11.33 16.17 11.66 32.34 12 49 C17.74813012 48.63936201 17.74813012 48.63936201 20 46 C20.32977606 43.98166057 20.32977606 43.98166057 20.31884766 41.64208984 C20.33871735 40.74130707 20.35858704 39.84052429 20.37905884 38.91244507 C20.39061005 37.93844757 20.40216125 36.96445007 20.4140625 35.9609375 C20.43342865 34.96494537 20.4527948 33.96895325 20.4727478 32.94277954 C20.53264965 29.7536075 20.57897138 26.56439957 20.625 23.375 C20.66317001 21.21612987 20.70222116 19.05727512 20.7421875 16.8984375 C20.83835991 11.59908293 20.92235166 6.29965706 21 1 C24.3 1 27.6 1 31 1 C31 20.14 31 39.28 31 59 C27.37 59 23.74 59 20 59 C19.67 57.68 19.34 56.36 19 55 C17.824375 55.9590625 17.824375 55.9590625 16.625 56.9375 C12.57380966 60.12057813 10.19207706 60.61600914 5 60 C1.74745751 57.28655782 0.25981282 55.58028816 -0.43252563 51.36920166 C-0.57930925 48.10176586 -0.56164599 44.87149698 -0.48828125 41.6015625 C-0.48120651 40.41146576 -0.47413177 39.22136902 -0.46684265 37.99520874 C-0.43891643 34.20449234 -0.37617573 30.4152679 -0.3125 26.625 C-0.28741509 24.05080262 -0.26460227 21.47658203 -0.24414062 18.90234375 C-0.18909464 12.60099008 -0.10282932 6.30074776 0 0 Z " fill="#303030" transform="translate(247,207)"/>
<path d="M0 0 C12.21 0 24.42 0 37 0 C37 3.63 37 7.26 37 11 C32.71 11 28.42 11 24 11 C24 33.44 24 55.88 24 79 C20.04 79 16.08 79 12 79 C12 56.56 12 34.12 12 11 C8.04 11 4.08 11 0 11 C0 7.37 0 3.74 0 0 Z " fill="#2F2F2F" transform="translate(284,187)"/>
<path d="M0 0 C2.79526592 3.00491086 3.31200813 4.64567472 3.5 8.6875 C1.52 9.6775 1.52 9.6775 -0.5 10.6875 C-0.5 9.3675 -0.5 8.0475 -0.5 6.6875 C-1.9585872 7.33275977 -3.41686137 7.9787272 -4.875 8.625 C-5.68710938 8.98464844 -6.49921875 9.34429687 -7.3359375 9.71484375 C-8.73683785 10.3444903 -10.12625284 11.00062642 -11.5 11.6875 C-11.17 12.6775 -10.84 13.6675 -10.5 14.6875 C-7.98916886 13.43208443 -7.62874554 12.18686512 -6.5 9.6875 C-5.18 10.0175 -3.86 10.3475 -2.5 10.6875 C-2.5 11.6775 -2.5 12.6675 -2.5 13.6875 C-1.51 14.3475 -0.52 15.0075 0.5 15.6875 C-0.4590625 16.3371875 -0.4590625 16.3371875 -1.4375 17 C-3.76746003 18.59989177 -3.76746003 18.59989177 -4.5 21.6875 C-5.16 22.3475 -5.82 23.0075 -6.5 23.6875 C-7.49 23.6875 -8.48 23.6875 -9.5 23.6875 C-10.16 25.0075 -10.82 26.3275 -11.5 27.6875 C-14.965 27.1925 -14.965 27.1925 -18.5 26.6875 C-18.62375 25.80384766 -18.62375 25.80384766 -18.75 24.90234375 C-19.95390338 21.34706658 -22.7887802 19.79738524 -25.6875 17.56640625 C-27.88181122 15.29170001 -28.09878462 13.77184322 -28.5 10.6875 C-28.83 10.0275 -29.16 9.3675 -29.5 8.6875 C-28.51 8.6875 -27.52 8.6875 -26.5 8.6875 C-26.5 8.0275 -26.5 7.3675 -26.5 6.6875 C-24.5625 7.0625 -24.5625 7.0625 -22.5 7.6875 C-22.17 8.3475 -21.84 9.0075 -21.5 9.6875 C-19.48330173 10.82100534 -19.48330173 10.82100534 -17.5 11.6875 C-21.62836374 7.21312594 -21.62836374 7.21312594 -26.5 3.6875 C-28.50800456 3.96862064 -30.51014051 4.29817967 -32.5 4.6875 C-33.16 4.0275 -33.82 3.3675 -34.5 2.6875 C-34.4375 0.75 -34.4375 0.75 -33.5 -1.3125 C-24.31739878 -8.39622094 -9.00011975 -6.64294553 0 0 Z " fill="#F5D365" transform="translate(121.5,212.3125)"/>
<path d="M0 0 C6.33873683 -0.36569636 6.33873683 -0.36569636 9.20996094 1.22216797 C11 3 11 3 11.45410156 5.16064453 C11.42268066 6.38436768 11.42268066 6.38436768 11.390625 7.6328125 C11.37128906 8.96505859 11.37128906 8.96505859 11.3515625 10.32421875 C11.31804687 11.24847656 11.28453125 12.17273438 11.25 13.125 C11.23195313 14.05699219 11.21390625 14.98898438 11.1953125 15.94921875 C11.14739897 18.30040431 11.07844447 20.64968297 11 23 C11 23.33 11 23.66 11 24 C11.61875 24.12375 12.2375 24.2475 12.875 24.375 C15 25 15 25 17 27 C17.125 30.125 17.125 30.125 17 33 C16.26394531 33.02578125 15.52789062 33.0515625 14.76953125 33.078125 C8.91258492 33.41855517 5.32166709 33.67833291 1 38 C0.34 38 -0.32 38 -1 38 C-4 34.53846154 -4 34.53846154 -4 32 C-4.99 31.67 -5.98 31.34 -7 31 C-7.125 28.125 -7.125 28.125 -7 25 C-6.34 24.34 -5.68 23.68 -5 23 C-4.67 23.33 -4.34 23.66 -4 24 C-4.01160156 23.31292969 -4.02320313 22.62585938 -4.03515625 21.91796875 C-4.04417969 21.01691406 -4.05320313 20.11585938 -4.0625 19.1875 C-4.07410156 18.29417969 -4.08570313 17.40085938 -4.09765625 16.48046875 C-4 14 -4 14 -3 11 C-3.33 10.01 -3.66 9.02 -4 8 C-3.22265625 5.95703125 -3.22265625 5.95703125 -2.0625 3.8125 C-1.68222656 3.09707031 -1.30195312 2.38164062 -0.91015625 1.64453125 C-0.45962891 0.83048828 -0.45962891 0.83048828 0 0 Z " fill="#F9D659" transform="translate(66,197)"/>
<path d="M0 0 C2.574325 2.574325 2.24775746 4.30712646 2.27789307 7.81652832 C2.2738446 8.60926147 2.26979614 9.40199463 2.265625 10.21875 C2.26753845 11.03243042 2.2694519 11.84611084 2.27142334 12.68444824 C2.27278527 14.406009 2.26908828 16.12758003 2.26074219 17.84912109 C2.25004258 20.4894917 2.260637 23.12918189 2.2734375 25.76953125 C2.27211591 27.44010567 2.26955352 29.11067967 2.265625 30.78125 C2.26967346 31.57398315 2.27372192 32.36671631 2.27789307 33.18347168 C2.22992027 38.77007973 2.22992027 38.77007973 0 41 C-3 41.25 -3 41.25 -6 41 C-8.53694403 38.46305597 -8.25712283 36.82368559 -8.30354309 33.36158752 C-8.30263168 32.5938652 -8.30172028 31.82614288 -8.30078125 31.03515625 C-8.30506638 30.24604355 -8.3093515 29.45693085 -8.31376648 28.64390564 C-8.31951363 26.97363241 -8.32000721 25.30333414 -8.31567383 23.63305664 C-8.31251655 21.07590028 -8.33595751 18.5199036 -8.36132812 15.96289062 C-8.36360134 14.3411473 -8.36430451 12.71940085 -8.36328125 11.09765625 C-8.372491 10.33195816 -8.38170074 9.56626007 -8.39118958 8.77735901 C-8.34518371 3.50327179 -8.34518371 3.50327179 -6.63745117 1.01342773 C-4.31251889 -0.42548593 -2.67717987 -0.34322819 0 0 Z " fill="#F3F3F3" transform="translate(464,216)"/>
<path d="M0 0 C2.4375 0.8125 2.4375 0.8125 4.4375 2.8125 C4.63723733 5.51385323 4.71731573 8.11047211 4.703125 10.8125 C4.70503845 11.60398438 4.7069519 12.39546875 4.70892334 13.2109375 C4.71028518 14.8854199 4.70658882 16.55991285 4.69824219 18.234375 C4.6875424 20.80232381 4.69813725 23.36957303 4.7109375 25.9375 C4.7096159 27.56250155 4.70705351 29.18750266 4.703125 30.8125 C4.70717346 31.58335937 4.71122192 32.35421875 4.71539307 33.1484375 C4.66742132 38.58257868 4.66742132 38.58257868 2.4375 40.8125 C-0.5625 41.0625 -0.5625 41.0625 -3.5625 40.8125 C-6.09944403 38.27555597 -5.81962283 36.63618559 -5.86604309 33.17408752 C-5.86513168 32.4063652 -5.86422028 31.63864288 -5.86328125 30.84765625 C-5.86756638 30.05854355 -5.8718515 29.26943085 -5.87626648 28.45640564 C-5.88201363 26.78613241 -5.88250721 25.11583414 -5.87817383 23.44555664 C-5.87501655 20.88840028 -5.89845751 18.3324036 -5.92382812 15.77539062 C-5.92610134 14.1536473 -5.92680451 12.53190085 -5.92578125 10.91015625 C-5.934991 10.14445816 -5.94420074 9.37876007 -5.95368958 8.58985901 C-5.90775367 3.32379217 -5.90775367 3.32379217 -4.19995117 0.79467773 C-2.5625 -0.1875 -2.5625 -0.1875 0 0 Z " fill="#F5F5F5" transform="translate(223.5625,216.1875)"/>
<path d="M0 0 C2.54086249 2.54086249 2.24715629 4.17235035 2.27789307 7.63841248 C2.2738446 8.4061348 2.26979614 9.17385712 2.265625 9.96484375 C2.26753845 10.75395645 2.2694519 11.54306915 2.27142334 12.35609436 C2.27278533 14.0263806 2.2690879 15.69667742 2.26074219 17.36694336 C2.2500568 19.9239077 2.26062939 22.48016718 2.2734375 25.03710938 C2.27211563 26.65885572 2.26955266 28.28060162 2.265625 29.90234375 C2.26967346 30.66804184 2.27372192 31.43373993 2.27789307 32.22264099 C2.244398 36.01649251 2.15604644 37.76593033 0 41 C-2.71235068 41.41728472 -4.28882619 41.44934123 -6.63525391 39.96679688 C-8.74891917 36.92069895 -8.42776928 33.73385156 -8.3984375 30.15625 C-8.40130768 29.39074829 -8.40417786 28.62524658 -8.40713501 27.83654785 C-8.409175 26.21931213 -8.40364963 24.6020517 -8.39111328 22.98486328 C-8.37505758 20.50887909 -8.39096297 18.03452715 -8.41015625 15.55859375 C-8.40817381 13.98697556 -8.4043301 12.41535839 -8.3984375 10.84375 C-8.40451019 10.10306274 -8.41058289 9.36237549 -8.4168396 8.59924316 C-8.34705254 3.50114636 -8.34705254 3.50114636 -6.63525391 1.02929688 C-4.31371229 -0.43197805 -2.68476697 -0.34420089 0 0 Z " fill="#F3F3F3" transform="translate(384,216)"/>
<path d="M0 0 C2.4375 0.8125 2.4375 0.8125 4.4375 2.8125 C4.63723733 5.51385323 4.71731573 8.11047211 4.703125 10.8125 C4.70503845 11.60398438 4.7069519 12.39546875 4.70892334 13.2109375 C4.71028518 14.8854199 4.70658882 16.55991285 4.69824219 18.234375 C4.6875424 20.80232381 4.69813725 23.36957303 4.7109375 25.9375 C4.7096159 27.56250155 4.70705351 29.18750266 4.703125 30.8125 C4.70717346 31.58335937 4.71122192 32.35421875 4.71539307 33.1484375 C4.66742132 38.58257868 4.66742132 38.58257868 2.4375 40.8125 C0 41.1875 0 41.1875 -2.5625 40.8125 C-5.1673325 38.35817066 -5.55524213 36.87845531 -5.95068359 33.28491211 C-5.97039711 31.88669078 -5.97283616 30.48815342 -5.9609375 29.08984375 C-5.96380768 28.34795303 -5.96667786 27.60606232 -5.96963501 26.84169006 C-5.9716718 25.27750889 -5.96616883 23.71330203 -5.95361328 22.14916992 C-5.93753001 19.75446772 -5.95348528 17.36144729 -5.97265625 14.96679688 C-5.97067419 13.44530878 -5.96683129 11.92382172 -5.9609375 10.40234375 C-5.96701019 9.68666733 -5.97308289 8.97099091 -5.9793396 8.23362732 C-5.93774166 5.29707381 -5.8876931 3.28574614 -4.19775391 0.82641602 C-2.5625 -0.1875 -2.5625 -0.1875 0 0 Z " fill="#F7F7F7" transform="translate(421.5625,216.1875)"/>
<path d="M0 0 C-0.33 3.63 -0.66 7.26 -1 11 C-0.67 9.68 -0.34 8.36 0 7 C2.86724686 7.57344937 3.8614515 7.8614515 6 10 C6.125 13.125 6.125 13.125 6 16 C5.26394531 16.02578125 4.52789062 16.0515625 3.76953125 16.078125 C-2.08741508 16.41855517 -5.67833291 16.67833291 -10 21 C-10.66 21 -11.32 21 -12 21 C-15 17.53846154 -15 17.53846154 -15 15 C-13.35 15 -11.7 15 -10 15 C-10.5259375 13.6696875 -10.5259375 13.6696875 -11.0625 12.3125 C-12.03189914 8.88728971 -11.84061371 7.36245483 -11 4 C-11.33 3.34 -11.66 2.68 -12 2 C-9.02148438 1.65820312 -9.02148438 1.65820312 -6.04296875 1.31640625 C-3.98004017 0.99690871 -2.06136976 0 0 0 Z " fill="#FAC42C" transform="translate(77,214)"/>
<path d="M0 0 C0.67289063 -0.01160156 1.34578125 -0.02320313 2.0390625 -0.03515625 C9.05983184 0.00550458 14.33863871 2.50451912 19.75 6.8125 C20.48734375 7.38871094 21.2246875 7.96492187 21.984375 8.55859375 C23.97461079 10.35212018 25.47529539 12.17961837 27 14.375 C26.67 15.035 26.34 15.695 26 16.375 C25.34 16.045 24.68 15.715 24 15.375 C23.95875 15.973125 23.9175 16.57125 23.875 17.1875 C23 19.375 23 19.375 20.0625 21.1875 C19.051875 21.579375 18.04125 21.97125 17 22.375 C16.34 22.045 15.68 21.715 15 21.375 C15 20.385 15 19.395 15 18.375 C14.01 18.375 13.02 18.375 12 18.375 C11.731875 19.014375 11.46375 19.65375 11.1875 20.3125 C10 22.375 10 22.375 7 23.375 C6.67 22.055 6.34 20.735 6 19.375 C13.28571429 14.94642857 13.28571429 14.94642857 18 14.375 C18.495 15.86 18.495 15.86 19 17.375 C19.99 17.045 20.98 16.715 22 16.375 C20.20641454 10.65794636 18.22562585 8.21320812 12.96875 5.30859375 C6.24228265 2.11886022 -2.87964877 2.49430769 -9.984375 4.47265625 C-14.16876529 6.34590074 -17.5109973 9.45717525 -21 12.375 C-21.99 13.035 -22.98 13.695 -24 14.375 C-22.62757886 9.19029793 -19.33524755 6.26516503 -15 3.375 C-9.92872171 0.78124609 -5.63425521 -0.09714233 0 0 Z " fill="#EF9B22" transform="translate(103,204.625)"/>
<path d="M0 0 C0.474375 0.474375 0.94875 0.94875 1.4375 1.4375 C1.4375 2.0975 1.4375 2.7575 1.4375 3.4375 C-2.39637527 3.32659533 -6.22935783 3.19621426 -10.0625 3.0625 C-11.14015625 3.0315625 -12.2178125 3.000625 -13.328125 2.96875 C-19.3677228 2.7477891 -24.76630501 2.16791744 -30.5625 0.4375 C-30.2325 -0.5525 -29.9025 -1.5425 -29.5625 -2.5625 C-19.48449099 -6.04399402 -9.20488106 -5.61273235 0 0 Z " fill="#F9E696" transform="translate(120.5625,211.5625)"/>
<path d="M0 0 C1.9375 0.375 1.9375 0.375 4 1 C4.33 1.66 4.66 2.32 5 3 C7.01669827 4.13350534 7.01669827 4.13350534 9 5 C9 5.99 9 6.98 9 8 C7.02 8.99 7.02 8.99 5 10 C6.27057182 10.47985967 7.54146848 10.9588593 8.8125 11.4375 C9.52019531 11.70433594 10.22789063 11.97117188 10.95703125 12.24609375 C12.62672396 12.86225186 14.31157704 13.43719235 16 14 C16 14.66 16 15.32 16 16 C17.32 16.33 18.64 16.66 20 17 C19.01 17 18.02 17 17 17 C16.34 18.32 15.68 19.64 15 21 C12.69 20.67 10.38 20.34 8 20 C7.87625 19.11634766 7.87625 19.11634766 7.75 18.21484375 C6.54609662 14.65956658 3.7112198 13.10988524 0.8125 10.87890625 C-1.38181122 8.60420001 -1.59878462 7.08434322 -2 4 C-2.33 3.34 -2.66 2.68 -3 2 C-2.01 2 -1.02 2 0 2 C0 1.34 0 0.68 0 0 Z " fill="#E9A634" transform="translate(95,219)"/>
<path d="M0 0 C0.33 0.66 0.66 1.32 1 2 C1.99 2.33 2.98 2.66 4 3 C3.01 3.66 2.02 4.32 1 5 C1.33 5.99 1.66 6.98 2 8 C4.51083114 6.74458443 4.87125446 5.49936512 6 3 C7.32 3.33 8.64 3.66 10 4 C10 4.99 10 5.98 10 7 C10.99 7.66 11.98 8.32 13 9 C12.360625 9.433125 11.72125 9.86625 11.0625 10.3125 C8.73253997 11.91239177 8.73253997 11.91239177 8 15 C1.82426504 14.5854252 -3.32902769 13.53168407 -9 11 C-9.33 10.34 -9.66 9.68 -10 9 C-8.88625 8.79375 -7.7725 8.5875 -6.625 8.375 C-4.830625 7.694375 -4.830625 7.694375 -3 7 C-1.53641935 4.02812283 -1.53641935 4.02812283 -1 1 C-0.67 0.67 -0.34 0.34 0 0 Z " fill="#F8D24C" transform="translate(109,219)"/>
<path d="M0 0 C1 2 1 2 0.0625 5.125 C-0.288125 6.07375 -0.63875 7.0225 -1 8 C-0.67 8.33 -0.34 8.66 0 9 C0.04063832 10.66617115 0.042721 12.33388095 0 14 C-0.33 14 -0.66 14 -1 14 C-1 17.63 -1 21.26 -1 25 C-1.99 24.34 -2.98 23.68 -4 23 C-4.20970559 27.14093698 -4.20970559 27.14093698 -3 31 C-4.32 30.34 -5.64 29.68 -7 29 C-9.2236068 30.9254644 -9.2236068 30.9254644 -10 34 C-10.66 34.66 -11.32 35.32 -12 36 C-12.29003091 30.39273577 -12.13444318 26.8758005 -9 22 C-6 20 -6 20 -3 20 C-3.33 19.01 -3.66 18.02 -4 17 C-4.9843772 6.72052004 -4.9843772 6.72052004 -2 2.3125 C-1.34 1.549375 -0.68 0.78625 0 0 Z " fill="#EC992C" transform="translate(64,199)"/>
<path d="M0 0 C0.56960449 0.13712402 1.13920898 0.27424805 1.72607422 0.41552734 C8.86614593 2.00268358 15.82773342 2.42135535 23.125 2.625 C24.27226563 2.66367188 25.41953125 2.70234375 26.6015625 2.7421875 C29.40089117 2.83549846 32.20022936 2.92128645 35 3 C35.495 4.98 35.495 4.98 36 7 C35.27409668 6.93941406 34.54819336 6.87882813 33.80029297 6.81640625 C30.49206703 6.54173317 27.18354252 6.27083202 23.875 6 C22.16183594 5.85691406 22.16183594 5.85691406 20.4140625 5.7109375 C19.30546875 5.62070313 18.196875 5.53046875 17.0546875 5.4375 C15.53077393 5.31181641 15.53077393 5.31181641 13.97607422 5.18359375 C8.30909489 4.77214165 8.30909489 4.77214165 2.75 5.625 C2.1725 5.74875 1.595 5.8725 1 6 C0.34 5.34 -0.32 4.68 -1 4 C-0.625 1.875 -0.625 1.875 0 0 Z " fill="#F8E080" transform="translate(88,211)"/>
<path d="M0 0 C1.65 1.65 3.3 3.3 5 5 C4.67 5.66 4.34 6.32 4 7 C3.34 6.67 2.68 6.34 2 6 C1.95875 6.598125 1.9175 7.19625 1.875 7.8125 C1 10 1 10 -1.9375 11.8125 C-2.948125 12.204375 -3.95875 12.59625 -5 13 C-5.66 12.67 -6.32 12.34 -7 12 C-7 11.01 -7 10.02 -7 9 C-7.99 9 -8.98 9 -10 9 C-10.268125 9.639375 -10.53625 10.27875 -10.8125 10.9375 C-12 13 -12 13 -15 14 C-15.33 12.68 -15.66 11.36 -16 10 C-8.71428571 5.57142857 -8.71428571 5.57142857 -4 5 C-3.67 5.99 -3.34 6.98 -3 8 C-2.01 7.67 -1.02 7.34 0 7 C0 4.69 0 2.38 0 0 Z " fill="#EF8B19" transform="translate(125,214)"/>
<path d="M0 0 C1.71484375 0.94921875 1.71484375 0.94921875 2.71484375 3.94921875 C-3.4375 4.046875 -3.4375 4.046875 -5.28515625 3.94921875 C-5.61515625 3.61921875 -5.94515625 3.28921875 -6.28515625 2.94921875 C-8.07231269 2.73964992 -9.86559394 2.58110259 -11.66015625 2.44921875 C-14.80536134 2.21685531 -17.28143532 1.95045906 -20.28515625 0.94921875 C-20.28515625 0.28921875 -20.28515625 -0.37078125 -20.28515625 -1.05078125 C-13.44307061 -3.33147646 -6.71343558 -2.22994609 0 0 Z " fill="#F9EFB0" transform="translate(116.28515625,209.05078125)"/>
<path d="M0 0 C2.875 -0.125 2.875 -0.125 6 0 C8 2 8 2 8.1953125 3.9453125 C8.13020833 5.96354167 8.06510417 7.98177083 8 10 C7.01 10.495 7.01 10.495 6 11 C2.80623468 9.40311734 1.42408504 6.16616965 0 3 C0 2.01 0 1.02 0 0 Z " fill="#F5D785" transform="translate(69,198)"/>
<path d="M0 0 C1.7325 0.7115625 1.7325 0.7115625 3.5 1.4375 C7.68570332 3.02208768 11.55238986 3.60289195 16 4 C15.01 4.33 14.02 4.66 13 5 C11.79117904 7.00016466 11.79117904 7.00016466 11 9 C8.69 8.67 6.38 8.34 4 8 C3.896875 7.38125 3.79375 6.7625 3.6875 6.125 C3.12474627 3.63473516 3.12474627 3.63473516 0 2 C0 1.34 0 0.68 0 0 Z " fill="#E6B856" transform="translate(99,231)"/>
<path d="M0 0 C2.86724686 0.57344937 3.8614515 0.8614515 6 3 C6.125 5.625 6.125 5.625 6 8 C4 7 2 6 0 5 C0 5.99 0 6.98 0 8 C-1.98 8 -3.96 8 -6 8 C-5.67 7.34 -5.34 6.68 -5 6 C-3.68 6 -2.36 6 -1 6 C-0.67 4.02 -0.34 2.04 0 0 Z " fill="#F7D160" transform="translate(77,221)"/>
<path d="M0 0 C0.66 0 1.32 0 2 0 C1.52575143 4.26823714 -0.95761403 6.17492731 -4 9 C-4.804375 9.8971875 -4.804375 9.8971875 -5.625 10.8125 C-7 12 -7 12 -10 12 C-8.62845314 8.81580579 -7.13830017 7.02887404 -4.4375 4.875 C-1.78974334 2.79096366 -1.78974334 2.79096366 0 0 Z " fill="#F8C851" transform="translate(127,240)"/>
<path d="M0 0 C0.66 1.32 1.32 2.64 2 4 C3.32 3.67 4.64 3.34 6 3 C6.33 4.98 6.66 6.96 7 9 C4.66705225 9.04241723 2.33297433 9.04092937 0 9 C-1 8 -1 8 -1.125 5.0625 C-1 2 -1 2 0 0 Z " fill="#F7CB48" transform="translate(60,220)"/>
<path d="M0 0 C0.33 0 0.66 0 1 0 C1 1.65 1 3.3 1 5 C-0.43410368 5.24954005 -1.87260072 5.47392642 -3.3125 5.6875 C-4.11300781 5.81511719 -4.91351563 5.94273437 -5.73828125 6.07421875 C-8 6 -8 6 -9.79296875 4.51953125 C-10.19128906 4.01808594 -10.58960937 3.51664063 -11 3 C-7.34535987 0.56357324 -5.29831033 0.92040166 -1 1 C-0.67 0.67 -0.34 0.34 0 0 Z " fill="#F2C041" transform="translate(76,214)"/>
<path d="M0 0 C0.66 0.33 1.32 0.66 2 1 C-2.38446508 5.74983717 -7.64279369 9.42852913 -13 13 C-11.44231707 7.11542005 -6.96306517 3.74589528 -1.8984375 0.76171875 C-1.27195312 0.51035156 -0.64546875 0.25898438 0 0 Z " fill="#E8811C" transform="translate(92,206)"/>
<path d="M0 0 C0 0.99 0 1.98 0 3 C-1.423125 3.12375 -1.423125 3.12375 -2.875 3.25 C-4.421875 3.62125 -4.421875 3.62125 -6 4 C-7.22527948 5.95021083 -7.22527948 5.95021083 -8 8 C-8.99 8.33 -9.98 8.66 -11 9 C-11.33 7.68 -11.66 6.36 -12 5 C-3.29032258 0 -3.29032258 0 0 0 Z " fill="#4B2C14" transform="translate(121,219)"/>
<path d="M0 0 C1.9375 0.375 1.9375 0.375 4 1 C4.33 1.66 4.66 2.32 5 3 C5.99 3.33 6.98 3.66 8 4 C8 4.99 8 5.98 8 7 C4.13351728 5.95902388 0.50538557 4.96301592 -3 3 C-2.01 2.67 -1.02 2.34 0 2 C0 1.34 0 0.68 0 0 Z " fill="#B8B997" transform="translate(95,219)"/>
<path d="M0 0 C5.40489519 1.52012677 8.98492628 5.27385218 13 9 C12.67 9.66 12.34 10.32 12 11 C10.35 9.68 8.7 8.36 7 7 C6.67 7.66 6.34 8.32 6 9 C6 7.68 6 6.36 6 5 C4.68 4.67 3.36 4.34 2 4 C1.67 4.66 1.34 5.32 1 6 C0.67 4.02 0.34 2.04 0 0 Z " fill="#5C4024" transform="translate(93,215)"/>
<path d="M0 0 C2.97 0.99 5.94 1.98 9 3 C9.33 2.34 9.66 1.68 10 1 C10 1.99 10 2.98 10 4 C8 5.6875 8 5.6875 6 7 C3.42124782 5.96849913 2.21229635 5.35028898 0.75 2.9375 C0 1 0 1 0 0 Z " fill="#EBBC42" transform="translate(94,223)"/>
<path d="M0 0 C1.32 0.33 2.64 0.66 4 1 C3.42655063 3.86724686 3.1385485 4.8614515 1 7 C-1.625 6.625 -1.625 6.625 -4 6 C-2.68 4.02 -1.36 2.04 0 0 Z " fill="#CDE0E6" transform="translate(115,222)"/>
<path d="M0 0 C-0.639375 0.598125 -1.27875 1.19625 -1.9375 1.8125 C-4.20310389 3.90810337 -4.20310389 3.90810337 -5 7 C-5.66 7 -6.32 7 -7 7 C-7 6.01 -7 5.02 -7 4 C-8.32 3.67 -9.64 3.34 -11 3 C-10.67 2.34 -10.34 1.68 -10 1 C-6.6322481 0.06451336 -3.4815554 -0.09947301 0 0 Z " fill="#E9BD51" transform="translate(122,227)"/>
<path d="M0 0 C4.455 0.99 4.455 0.99 9 2 C8.67 3.65 8.34 5.3 8 7 C6.66382648 6.02471263 5.3311249 5.04466681 4 4.0625 C3.2575 3.51722656 2.515 2.97195312 1.75 2.41015625 C1.1725 1.94480469 0.595 1.47945312 0 1 C0 0.67 0 0.34 0 0 Z " fill="#EFC54B" transform="translate(98,217)"/>
<path d="M0 0 C0.33 0.66 0.66 1.32 1 2 C1.66 2.33 2.32 2.66 3 3 C1.03533587 4.06775224 -0.96855359 5.06553465 -3 6 C-3.66 5.67 -4.32 5.34 -5 5 C-5 3.68 -5 2.36 -5 1 C-3.35 0.67 -1.7 0.34 0 0 Z " fill="#E19B23" transform="translate(123,221)"/>
<path d="M0 0 C0.66 0.33 1.32 0.66 2 1 C-1.465 3.97 -1.465 3.97 -5 7 C-5 4 -5 4 -3 1 C-2.01 0.67 -1.02 0.34 0 0 Z M-8 6 C-6 7 -6 7 -6 7 Z " fill="#FAC936" transform="translate(115,235)"/>
<path d="M0 0 C3.63 1.32 7.26 2.64 11 4 C10.67 4.66 10.34 5.32 10 6 C5.8333396 5.52651586 3.07115285 4.95303159 0 2 C0 1.34 0 0.68 0 0 Z " fill="#E2D9CD" transform="translate(99,231)"/>
<path d="M0 0 C0.66 0.66 1.32 1.32 2 2 C4.57061311 2.64767793 4.57061311 2.64767793 7 3 C5.75 4.5625 5.75 4.5625 4 6 C1.8125 5.6875 1.8125 5.6875 0 5 C-0.5625 3.0625 -0.5625 3.0625 -1 1 C-0.67 0.67 -0.34 0.34 0 0 Z " fill="#F8D76D" transform="translate(88,211)"/>
<path d="M0 0 C4.75 0.75 4.75 0.75 7 3 C6.67 3.99 6.34 4.98 6 6 C5.34 5.34 4.68 4.68 4 4 C1.93125966 3.3574765 1.93125966 3.3574765 0 3 C0 2.01 0 1.02 0 0 Z " fill="#FAF3CD" transform="translate(69,198)"/>
<path d="M0 0 C0 3 0 3 -2.3125 5.6875 C-5 8 -5 8 -8 8 C-6.74157232 4.22471696 -5.37506571 3.89332955 -2 2 C-1.34 1.34 -0.68 0.68 0 0 Z " fill="#F7D471" transform="translate(125,244)"/>
<path d="M0 0 C0.99 0.33 1.98 0.66 3 1 C3 2.65 3 4.3 3 6 C2.67 6 2.34 6 2 6 C1.67 7.65 1.34 9.3 1 11 C0.67 11 0.34 11 0 11 C0 7.37 0 3.74 0 0 Z " fill="#F4C44A" transform="translate(61,207)"/>
<path d="M0 0 C2.31 0 4.62 0 7 0 C6.1646875 0.37125 6.1646875 0.37125 5.3125 0.75 C2.60028873 2.21606015 0.36412635 4.02989471 -2 6 C-1.34 4.02 -0.68 2.04 0 0 Z " fill="#F0AB32" transform="translate(66,197)"/>
<path d="M0 0 C1.32 0 2.64 0 4 0 C3.6875 1.9375 3.6875 1.9375 3 4 C2.01 4.33 1.02 4.66 0 5 C-0.5625 3.0625 -0.5625 3.0625 -1 1 C-0.67 0.67 -0.34 0.34 0 0 Z " fill="#6C6B48" transform="translate(110,223)"/>
<path d="M0 0 C0.33 0.66 0.66 1.32 1 2 C1.99 2.33 2.98 2.66 4 3 C1.69 4.32 -0.62 5.64 -3 7 C-1.125 1.125 -1.125 1.125 0 0 Z " fill="#EBBA44" transform="translate(109,219)"/>
</svg>
